<svg width="396" height="202.06153846153845" viewBox="0 0 390 199" class="looka-1j8o68f"><defs id="SvgjsDefs1011"></defs><g id="SvgjsG1012" featurekey="rootContainer" transform="matrix(1,0,0,1,0,0)" fill="#111111"><rect xmlns="http://www.w3.org/2000/svg" width="390" height="199" rx="10" ry="10"></rect></g><g id="SvgjsG1013" featurekey="q4o0QG-0" transform="matrix(10.523149049233329,0,0,10.523149049233329,14.10703462565451,-33.66807921883823)" fill="#a5dee5"><path d="M5.64 8.2 l-1.28 -0.22 l-0.22 10.62 l1.26 0.04 l0.32 -0.3 l0.3 -6.22 l-0.02 -2.28 z M0.7 5.34 l0.64 0 l1.62 -0.04 c0.74 -0.02 1.74 -0.04 1.98 0.02 c0.4 0.06 0.78 0.2 1.24 0.34 c0.24 0.08 0.48 0.18 0.72 0.28 l1.14 1.74 c0.02 1.26 0.04 2.44 0.08 3.56 c0 1.92 -0.02 4.02 -0.08 4.92 c-0.22 0.62 -0.26 1.14 -0.26 1.52 c-0.04 0.22 -0.08 0.42 -0.14 0.6 l-1.08 1.6 l-2.34 0.12 l-3.66 0 z M15.68 5.300000000000001 l0.84 0.66 l0.18 0.76 l-0.02 7.82 l-0.4 2.66 l-1.34 0.5 l-2.08 0.04 l-0.08 0 l-0.24 0.38 l0.84 0.42 l2.44 -0.38 l0.12 0.44 l-0.12 1.52 l-1.7 0 l-1.58 0 l-1.12 -0.2 l-0.9 -0.66 l0.04 -0.96 l0.18 -0.7 l-0.58 -0.02 l-0.5 -0.34 l-0.3 -0.82 l-0.14 -1.3 l0.04 -2.28 l-0.24 -6.4 l0.6 -0.98 l0.42 -0.22 z M11.42 16.14 l1.64 0.18 l0.5 -0.3 l-0.16 -5.38 l-0.16 -1.98 l0 -0.42 l-0.06 -0.5 l-0.46 -0.16 l-1.12 0.46 z M22.820000000000004 16.48 l-0.08 -1.84 c0.34 0 2.6 0.04 3 0.1 l-0.14 4.86 l-1.22 0.54 l-2.24 0 l-2.6 0.08 l-0.72 -0.6 l-0.82 -1.42 l0 -2.66 l-0.18 -3.34 l0.08 -3.06 l0.28 -3.26 l2.06 -0.64 l3.2 -0.12 l0.4 0.02 l0.4 0.08 l1.32 0.52 l0 1.02 l0.04 3.06 l-0.1 0.74 l-1.36 0.2 l-1.46 -0.2 l-0.18 -2.38 l-0.4 -0.3 l-0.92 0.14 l-0.3 1.16 c0 0.22 0.06 1.2 0.06 2.1 c0.04 0.54 0.06 1.12 0.06 1.78 c0 0.9 0.04 1.72 0.1 2.48 c0.04 1.3 0.18 2.72 0.16 3.22 l1.48 0.04 z M31.82 5.119999999999999 l1.64 0.48 l0.22 0.76 l0.14 2.64 l-0.12 0.94 l-1.36 -0.04 l-1.64 0.06 l0 -0.82 l-0.18 -1.06 l-2.32 -0.02 l-0.22 0.58 l0.2 2.24 l1.46 0.04 c0.78 0.02 1.54 0.04 1.7 0.1 c0.1 0.06 0.66 0.08 1.22 0.14 l1.04 0.06 l0.22 3.36 l0 1.74 l-0.18 3.02 l-1.58 0.76 l-3.86 0.04 l-1.38 -0.66 l-0.34 -1.78 l0.08 -2.68 l0.06 -0.82 l0.76 0.04 l1.68 0.22 l0.06 2.8 l1.82 0.14 l0.06 -4.08 l-1.22 -0.04 l-1.46 -0.04 l-1.52 -0.4 l-0.18 -4.26 l0.28 -2.88 l1.94 -0.6 z"></path></g></svg>
